<svg width="143" height="34" fill="none" xmlns="http://www.w3.org/2000/svg"><path d="M.876465 6.81818V33H4.63499V14.0412h.2429l7.72161 18.9204h3.1193l7.7216-18.9076h.2429V33h3.7585V6.81818h-4.794L14.3125 27.1705h-.3068L5.6705 6.81818H.876465zM42.0093 33.3963c4.2827 0 7.3125-2.1094 8.1818-5.3054l-3.6179-.652c-.6903 1.8537-2.3523 2.7997-4.5256 2.7997-3.2727 0-5.4716-2.1221-5.5738-5.9062H50.434v-1.3551c0-7.0952-4.2443-9.8693-8.6932-9.8693-5.4716 0-9.0767 4.1676-9.0767 10.2017 0 6.098 3.554 10.0866 9.3452 10.0866zm-5.5227-11.9275c.1534-2.787 2.1732-5.2032 5.2798-5.2032 2.9659 0 4.9091 2.1989 4.9219 5.2032H36.4866zM69.3896 18.1577c-.7926-3.0554-3.1832-5.0497-7.4276-5.0497-4.436 0-7.5809 2.3394-7.5809 5.8167 0 2.7869 1.6875 4.6406 5.3693 5.4588l3.3239.7287c1.892.4219 2.7741 1.2656 2.7741 2.4929 0 1.5213-1.6236 2.7102-4.1292 2.7102-2.2884 0-3.7586-.9843-4.2188-2.9147l-3.6946.5625c.6392 3.4772 3.5284 5.4332 7.9389 5.4332 4.7429 0 8.0284-2.5185 8.0284-6.0724 0-2.7742-1.7642-4.4873-5.3693-5.3182l-3.1193-.7159c-2.1605-.5114-3.0938-1.2401-3.081-2.5696-.0128-1.5086 1.6236-2.5824 3.7969-2.5824 2.3778 0 3.4773 1.3167 3.9247 2.6335l3.4645-.6136zM83.1421 13.3636h-4.027V8.65909h-3.8224v4.70451h-2.8765v3.0682h2.8765V28.027c-.0128 3.5668 2.7102 5.2926 5.7272 5.2287 1.2145-.0128 2.0327-.2429 2.4801-.4091l-.6903-3.1577c-.2557.0512-.7287.1662-1.3423.1662-1.2401 0-2.3523-.4091-2.3523-2.6207V16.4318h4.027v-3.0682zM95.4308 33.3963c5.5352 0 9.1532-4.0525 9.1532-10.125 0-6.1108-3.618-10.1633-9.1532-10.1633-5.5355 0-9.1534 4.0525-9.1534 10.1633 0 6.0725 3.6179 10.125 9.1534 10.125zm.0128-3.2088c-3.6179 0-5.3054-3.1577-5.3054-6.929 0-3.7585 1.6875-6.9545 5.3054-6.9545 3.5923 0 5.2794 3.196 5.2794 6.9545 0 3.7713-1.6871 6.929-5.2794 6.929zM108.057 9h1.057V5.59091h1.909c.076 0 .149 0 .221-.00426L113.085 9h1.228l-1.973-3.60511c1.112-.37927 1.632-1.28694 1.632-2.44603 0-1.54261-.921-2.676133-2.966-2.676133h-2.949V9zm1.057-4.36364V1.21023h1.858c1.414 0 1.96.69034 1.96 1.73863 0 1.0483-.546 1.6875-1.943 1.6875h-1.875zM119.721 6.32386c0 1.22728-.937 1.78978-1.687 1.78978-.835 0-1.432-.61364-1.432-1.56819v-4.0909h-1.006v4.15909c0 1.67045.887 2.47159 2.114 2.47159.989 0 1.636-.52841 1.943-1.19318h.068V9h1.006V2.45455h-1.006v3.86931zM127.205 3.92045c-.315-.92897-1.022-1.55113-2.318-1.55113-1.381 0-2.403.78409-2.403 1.89204 0 .90341.537 1.50853 1.738 1.78978l1.091.25568c.661.15341.972.46875.972.92045 0 .5625-.597 1.02273-1.534 1.02273-.823 0-1.338-.35369-1.517-1.05682l-.955.23864c.235 1.11221 1.151 1.70454 2.489 1.70454 1.521 0 2.557-.83096 2.557-1.96022 0-.91194-.571-1.48722-1.739-1.77273l-.972-.23864c-.775-.19176-1.125-.4517-1.125-.95454 0-.5625.597-.97159 1.398-.97159.878 0 1.24.48579 1.415.9375l.903-.25569zM133.475 3.92045c-.316-.92897-1.023-1.55113-2.318-1.55113-1.381 0-2.404.78409-2.404 1.89204 0 .90341.537 1.50853 1.739 1.78978l1.091.25568c.66.15341.971.46875.971.92045 0 .5625-.596 1.02273-1.534 1.02273-.822 0-1.338-.35369-1.517-1.05682l-.954.23864c.234 1.11221 1.15 1.70454 2.488 1.70454 1.522 0 2.557-.83096 2.557-1.96022 0-.91194-.571-1.48722-1.738-1.77273l-.972-.23864c-.776-.19176-1.125-.4517-1.125-.95454 0-.5625.597-.97159 1.398-.97159.877 0 1.24.48579 1.414.9375l.904-.25569zM135.108 9h1.006V2.45455h-1.006V9zm.511-7.63636c.392 0 .716-.30682.716-.681822 0-.375-.324-.681818-.716-.681818-.392 0-.716.306818-.716.681818 0 .375002.324.681822.716.681822zM139.882 9.15341c1.142 0 1.738-.61364 1.943-1.03977h.051V9h1.006V4.6875c0-2.07955-1.585-2.31818-2.421-2.31818-.988 0-2.113.34091-2.625 1.53409l.955.34091c.221-.47727.746-.98864 1.704-.98864.925 0 1.381.49006 1.381 1.32955v.03409c0 .48579-.494.44318-1.687.59659-1.215.15767-2.54.42614-2.54 1.92614 0 1.2784.988 2.01136 2.233 2.01136zm.153-.90341c-.801 0-1.38-.35795-1.38-1.05682 0-.76704.698-1.00568 1.482-1.10795.427-.05114 1.569-.17046 1.739-.375v.92045c0 .81818-.648 1.61932-1.841 1.61932z" fill="#fff"/></svg>